<svg width="313" height="784" viewBox="0 0 313 784" fill="none" xmlns="http://www.w3.org/2000/svg">
<path d="M280.994 103.543C277.326 99.876 272.351 97.8157 267.163 97.8157C261.976 97.8157 257.001 99.876 253.333 103.543L156.498 200.378L59.664 103.543C55.9744 99.9799 51.0329 98.0081 45.9037 98.0527C40.7745 98.0972 35.8679 100.155 32.2409 103.782C28.6138 107.409 26.5565 112.315 26.5119 117.444C26.4674 122.574 28.4391 127.515 32.0026 131.205L142.668 241.87C146.336 245.537 151.311 247.597 156.498 247.597C161.686 247.597 166.66 245.537 170.329 241.87L280.994 131.205C284.661 127.536 286.722 122.561 286.722 117.374C286.722 112.187 284.661 107.212 280.994 103.543Z" fill="white"/>
<path d="M280.994 260.505C277.326 256.838 272.351 254.777 267.163 254.777C261.976 254.777 257.001 256.838 253.333 260.505L156.498 357.339L59.664 260.505C55.9744 256.942 51.0329 254.97 45.9037 255.014C40.7745 255.059 35.8679 257.116 32.2409 260.743C28.6138 264.37 26.5565 269.277 26.5119 274.406C26.4674 279.535 28.4391 284.477 32.0026 288.166L142.668 398.831C146.336 402.499 151.311 404.559 156.498 404.559C161.686 404.559 166.66 402.499 170.329 398.831L280.994 288.166C284.661 284.498 286.722 279.523 286.722 274.336C286.722 269.148 284.661 264.174 280.994 260.505Z" fill="white"/>
<path d="M280.994 417.467C277.326 413.8 272.351 411.739 267.163 411.739C261.976 411.739 257.001 413.8 253.333 417.467L156.498 514.301L59.664 417.467C55.9744 413.903 51.0329 411.932 45.9037 411.976C40.7745 412.021 35.8679 414.078 32.2409 417.705C28.6138 421.332 26.5565 426.239 26.5119 431.368C26.4674 436.497 28.4391 441.439 32.0026 445.128L142.668 555.793C146.336 559.461 151.311 561.521 156.498 561.521C161.686 561.521 166.66 559.461 170.329 555.793L280.994 445.128C284.661 441.46 286.722 436.485 286.722 431.298C286.722 426.11 284.661 421.135 280.994 417.467Z" fill="white"/>
<path d="M280.994 574.429C277.326 570.761 272.351 568.701 267.163 568.701C261.976 568.701 257.001 570.761 253.333 574.429L156.498 671.263L59.664 574.429C55.9744 570.865 51.0329 568.893 45.9037 568.938C40.7745 568.982 35.8679 571.04 32.2409 574.667C28.6138 578.294 26.5565 583.2 26.5119 588.33C26.4674 593.459 28.4391 598.4 32.0026 602.09L142.668 712.755C146.336 716.422 151.311 718.483 156.498 718.483C161.686 718.483 166.66 716.422 170.329 712.755L280.994 602.09C284.661 598.421 286.722 593.447 286.722 588.259C286.722 583.072 284.661 578.097 280.994 574.429Z" fill="white"/>
</svg>
