<svg width="1355" height="646" viewBox="0 0 1355 646" fill="none" xmlns="http://www.w3.org/2000/svg">
<path d="M184.89 645.09C152.549 645.09 123.26 639.09 97.0214 627.089C70.9863 615.089 49.5277 598.512 32.6455 577.358C15.7634 556.001 5.08498 531.288 0.610197 503.219L0 499.863H68.3421L69.2574 503.219C74.7492 520.711 82.8851 535.56 93.6653 547.763C104.445 559.967 117.463 569.222 132.718 575.527C148.176 581.833 165.567 584.986 184.89 584.986C212.552 584.986 236.35 578.172 256.283 564.544C276.419 550.916 291.878 531.593 302.658 506.575C313.438 481.354 318.828 451.657 318.828 417.486V417.181C318.828 383.01 313.438 353.517 302.658 328.703C291.878 303.685 276.521 284.362 256.588 270.734C236.655 257.106 212.857 250.292 185.195 250.292C165.669 250.292 148.176 253.445 132.718 259.75C117.463 266.056 104.445 275.31 93.6653 287.514C82.8851 299.515 74.7492 314.363 69.2574 332.059L68.3421 335.415H0.305099L0.610197 332.364C5.08498 304.295 15.7634 279.582 32.6455 258.225C49.7311 236.868 71.2914 220.189 97.3265 208.189C123.565 196.188 152.753 190.188 184.89 190.188C226.79 190.188 262.995 199.443 293.505 217.952C324.015 236.461 347.507 262.7 363.983 296.667C380.661 330.635 389.001 370.806 389.001 417.181V417.486C389.001 463.861 380.661 504.134 363.983 538.305C347.304 572.273 323.71 598.613 293.2 617.326C262.893 635.835 226.79 645.09 184.89 645.09ZM352.389 442.199H128.141V384.536H352.389V442.199Z" fill="white"/>
<path d="M493.955 637.768V581.935H622.706C653.216 581.935 676.505 575.833 692.574 563.629C708.642 551.425 716.677 533.627 716.677 510.236V509.626C716.677 493.761 712.914 480.54 705.388 469.963C698.066 459.387 687.082 451.454 672.437 446.166C657.793 440.674 639.588 437.928 617.825 437.928H493.955V385.146H604.095C634.198 385.146 657.182 379.247 673.047 367.45C688.913 355.653 696.845 338.771 696.845 316.804V316.194C696.845 295.854 690.031 280.294 676.404 269.514C662.979 258.733 643.86 253.343 619.045 253.343H493.955V197.51H635.52C661.759 197.51 684.54 202.087 703.862 211.24C723.389 220.189 738.44 233.003 749.017 249.682C759.797 266.157 765.187 285.48 765.187 307.651V308.261C765.187 323.719 761.628 338.364 754.509 352.195C747.39 366.026 737.627 377.62 725.219 386.977C713.015 396.333 699.083 402.13 683.421 404.367V405.588C704.371 407.622 722.575 413.52 738.034 423.283C753.695 432.843 765.696 445.352 774.035 460.81C782.578 476.065 786.849 493.456 786.849 512.982V513.592C786.849 539.424 780.747 561.595 768.543 580.104C756.543 598.613 739.356 612.851 716.982 622.818C694.608 632.784 667.759 637.768 636.436 637.768H493.955ZM459.784 637.768V197.51H528.126V637.768H459.784Z" fill="white"/>
<path d="M1042.22 645.09C999.706 645.09 962.993 635.937 932.076 617.631C901.16 599.122 877.362 572.883 860.683 538.916C844.004 504.745 835.665 464.37 835.665 417.792V417.181C835.665 370.603 844.004 330.33 860.683 296.362C877.565 262.395 901.465 236.258 932.381 217.952C963.298 199.443 999.91 190.188 1042.22 190.188C1084.32 190.188 1120.83 199.443 1151.75 217.952C1182.66 236.461 1206.46 262.7 1223.14 296.667C1239.82 330.432 1248.16 370.603 1248.16 417.181V417.792C1248.16 464.37 1239.82 504.643 1223.14 538.611C1206.46 572.578 1182.66 598.817 1151.75 617.326C1121.03 635.835 1084.52 645.09 1042.22 645.09ZM1042.22 584.375C1070.29 584.375 1094.49 577.561 1114.83 563.934C1135.17 550.306 1150.83 530.983 1161.82 505.965C1172.8 480.947 1178.29 451.556 1178.29 417.792V417.181C1178.29 383.214 1172.7 353.822 1161.51 329.008C1150.53 303.99 1134.76 284.769 1114.22 271.344C1093.88 257.716 1069.88 250.903 1042.22 250.903C1014.35 250.903 990.147 257.615 969.603 271.039C949.263 284.463 933.5 303.685 922.313 328.703C911.126 353.517 905.533 383.01 905.533 417.181V417.792C905.533 451.759 911.126 481.252 922.313 506.27C933.5 531.288 949.263 550.611 969.603 564.239C989.943 577.663 1014.15 584.375 1042.22 584.375Z" fill="white"/>
</svg>
