<svg width="604" height="685" viewBox="0 0 604 685" fill="none" xmlns="http://www.w3.org/2000/svg">
<path d="M170.062 528.988C168.032 534.921 161.898 553.872 158.262 575.961C155.685 591.622 154.837 605.804 155.768 618.119C156.903 633.138 160.691 645.465 167.109 654.71L167.738 655.595C176.009 666.95 188.34 673.398 204.359 674.928C199.589 676.703 192.25 678.913 183.545 679.772C169.329 681.175 148.552 679.139 130.017 661.479C129.318 660.706 118.801 648.849 112.715 629.216C108.365 615.181 105.665 594.857 112.813 570.459C113.837 568.717 119.129 560.092 128.294 551.151C137.138 542.521 151.369 531.984 170.062 528.988Z" fill="white" stroke="#04ADF3" stroke-width="2"/>
<path d="M151.025 505.221C132.862 519.704 119.577 542.673 119.414 542.958L119.402 542.979C110.573 559.327 105.437 575.898 104.16 592.223C103.135 605.303 104.58 618.238 108.45 630.668C115.038 651.83 126.223 664.027 126.758 664.594L126.767 664.604L126.841 664.678L126.85 664.686C136.831 674.218 147.436 679.496 157.438 682.194C149.368 680.869 142.267 678.83 137.097 677.078C134.389 676.161 132.213 675.324 130.71 674.714C129.199 674.101 128.384 673.723 128.384 673.724L128.347 673.705L128.309 673.689L128.206 673.648L128.195 673.645L126.983 673.181C101.715 663.308 88.0169 644.744 80.9434 630.777C77.0346 623.056 74.6682 615.867 73.2783 610.597C71.888 605.325 71.4816 602 71.4814 602.005V601.997L71.4805 601.989L71.3623 600.755C66.6445 549.5 88.1523 516.346 107.536 497.294L108.465 496.391C125.308 480.155 143.122 471.531 150.14 468.525L151.025 505.221Z" fill="white" stroke="#04ADF3" stroke-width="2"/>
<path d="M206.296 370.643C206.389 370.648 206.454 370.719 206.461 370.793L206.462 370.8L207.219 378.574V378.576C207.226 378.646 207.19 378.713 207.13 378.745L207.062 378.766L178.699 381.526L178.688 381.527L178.679 381.528C178.641 381.533 178.612 381.524 178.583 381.5C178.552 381.474 178.533 381.448 178.523 381.43C178.514 381.412 178.509 381.397 178.508 381.381V381.372L177.75 373.598V373.595L177.757 373.527C177.776 373.464 177.831 373.415 177.904 373.406L206.271 370.646L206.296 370.643Z" fill="white" stroke="#04ADF3" stroke-width="2"/>
<path d="M215.726 429.808C226.464 429.238 234.993 432.207 239.231 434.099L246.344 489.767L246.346 489.782L246.349 489.797L247.492 497.01H247.493C247.522 497.202 247.403 497.377 247.238 497.426L247.234 497.427L177.524 518.303V448.066C191.157 434.748 204.652 430.395 215.726 429.808Z" fill="white" stroke="#04ADF3" stroke-width="2"/>
<path d="M251.717 494.826C254.046 496.921 257.095 500.02 260.297 504.244H260.298C266.591 512.54 274.815 527.041 278.102 548.886L278.109 548.927L278.119 548.968L278.165 549.162L278.173 549.199L278.185 549.235C278.186 549.238 278.192 549.261 278.207 549.308C278.221 549.356 278.243 549.427 278.27 549.52C278.324 549.704 278.4 549.973 278.496 550.323C278.686 551.024 278.951 552.046 279.251 553.352C279.853 555.963 280.599 559.707 281.195 564.279C282.386 573.429 282.968 585.869 280.582 599.179C274.448 633.389 252.51 657.434 215.151 670.724C195.078 671.418 180.438 665.37 171.386 652.94C164.291 643.195 161.11 630.2 160.219 616.555C159.329 602.923 160.731 588.747 162.709 576.729V576.729C164.862 563.635 167.91 551.65 170.433 542.906C171.694 538.535 172.822 534.976 173.641 532.496C174.051 531.256 174.383 530.286 174.615 529.619C174.731 529.286 174.822 529.028 174.885 528.851C174.917 528.762 174.941 528.693 174.958 528.645C174.967 528.621 174.974 528.602 174.979 528.589C174.981 528.582 174.983 528.576 174.985 528.572C174.986 528.568 174.987 528.566 174.987 528.566L174.993 528.551L174.999 528.534L176.868 522.894C176.97 522.896 177.063 522.898 177.145 522.898C177.334 522.899 177.63 522.895 177.577 522.895H178.157L178.279 522.771L248.536 501.726L248.537 501.727C250.874 501.029 252.336 498.694 251.953 496.289V496.288L251.717 494.826Z" fill="white" stroke="#04ADF3" stroke-width="2"/>
<path d="M202.656 392.136C202.73 392.155 202.78 392.215 202.786 392.279V392.286L203.175 396.247L203.177 396.267C203.181 396.305 203.172 396.334 203.147 396.363C203.121 396.394 203.097 396.412 203.078 396.422C203.061 396.431 203.045 396.436 203.029 396.438L203.021 396.438L185.448 398.146L185.44 398.147L185.432 398.148C185.361 398.156 185.268 398.103 185.257 397.989L184.869 394.03L184.867 394.011C184.863 393.973 184.872 393.944 184.896 393.915C184.923 393.884 184.947 393.865 184.966 393.855C184.983 393.846 184.999 393.842 185.015 393.841L185.023 393.84L202.555 392.136H202.656Z" fill="white" stroke="#04ADF3" stroke-width="2"/>
<path d="M154.072 444.28C157.261 441.839 160.373 440.915 163.365 441.368C165.924 441.755 168.154 443.1 169.885 444.55C171.4 445.818 172.486 447.128 173.022 447.831V518.017C169.276 517.465 163.517 516.095 157.053 512.707L156.918 512.637C156.15 512.179 155.669 511.358 155.65 510.46L155.649 510.457L154.055 444.343C154.06 444.323 154.066 444.302 154.072 444.28Z" fill="white" stroke="#04ADF3" stroke-width="2"/>
<path d="M275.134 7.33691C276.081 7.06738 302.485 -0.44644 334.625 1.24805C364.616 2.82844 405.674 12.9721 431.73 52.2246L431.758 52.2666L431.79 52.3057L443.951 67.1445V67.1436C445.01 68.4404 445.772 69.9754 446.162 71.5732V71.5742C447.297 76.2787 448.393 85.8251 442.881 96.6953L442.88 96.6963C442.351 97.7423 441.766 98.7757 441.136 99.8018C437.113 94.9575 427.087 83.6175 412.565 72.1436C394.938 58.2164 366.792 41.161 333.035 39.2793C294.018 37.1158 256.132 55.2326 220.443 92.877L220.429 92.8916L220.417 92.9062L220.352 92.9795L220.343 92.9902C220.089 93.2886 199.643 118.583 183.638 153.797C174.215 174.515 168.134 194.6 165.58 213.495C162.441 236.658 164.619 258.088 172.084 277.193C170.428 277.577 168.4 277.836 165.917 277.885L165.3 277.893C164.031 277.894 162.789 278.107 161.607 278.521L152.47 281.696C150.971 280.29 147.853 278 141.555 275.139L141.553 275.138L141.245 274.992C139.718 274.24 138.397 273.118 137.402 271.728V271.727C127.012 257.219 95.5115 204.921 125.768 140.175L125.769 140.173C125.867 139.961 137.818 114.403 162.147 85.3701L162.148 85.3711C184.575 58.6165 222.363 23.3898 275.134 7.33691Z" fill="white" stroke="#04ADF3" stroke-width="2"/>
<path d="M151.178 510.963C151.371 513.39 152.785 515.568 154.96 516.703V516.704C161.929 520.359 168.125 521.859 172.269 522.48L171.692 524.22C150.596 526.878 134.74 538.57 125.096 547.983L125.095 547.984C122.611 550.414 120.408 552.803 118.486 555.047C119.753 552.187 121.158 549.282 122.715 546.336L122.719 546.34L123.359 545.159C123.357 545.163 123.402 545.083 123.506 544.906C123.606 544.737 123.752 544.491 123.943 544.176C124.324 543.546 124.883 542.64 125.603 541.515C127.044 539.262 129.133 536.132 131.749 532.569C136.657 525.884 143.398 517.709 151.178 510.963Z" fill="white" stroke="#04ADF3" stroke-width="2"/>
<path d="M23.895 545.298C25.5774 545.121 27.3098 545.365 28.9106 545.992V545.991L68.3735 561.479C66.5703 571.431 65.8854 581.831 66.3081 592.606C57.22 592.907 49.3312 591.037 42.7202 588.234C29.9286 572.648 22.8037 558.051 19.0845 545.262C20.7867 545.498 22.4967 545.441 23.8931 545.298H23.895Z" fill="white" stroke="#04ADF3" stroke-width="2"/>
<path d="M36.6191 471.341C49.0884 459.342 61.6766 453.734 74.209 454.388V454.389C85.8629 455.005 95.8908 461.032 103.47 467.609C110.361 473.59 115.15 479.961 117.206 482.918C113.839 485.525 110.397 488.415 106.979 491.598L66.7383 479.12H66.7393C65.452 478.718 64.2729 477.877 63.4082 476.724L63.2393 476.488C61.766 474.337 59.0646 471.862 54.2627 470.65C50.0996 469.6 44.406 469.513 36.6191 471.341Z" fill="white" stroke="#04ADF3" stroke-width="2"/>
<path d="M43.2803 454.395C63.2461 447.214 80.4808 447.063 94.6182 453.757V453.758C107.703 459.958 115.118 470.743 118.55 477.089C116.36 474.236 113.219 470.505 109.227 466.7L108.206 465.746C97.6308 456.027 85.9944 450.512 74.4629 449.897C56.0877 448.921 38.1533 459.917 21.1514 482.051L21.1406 482.064L21.1309 482.078L21.084 482.143L21.0732 482.158L21.0635 482.174C20.6911 482.738 13.1643 494.221 11.3789 513.183L11.2988 514.082C10.3753 525.164 11.6451 536.483 15.0664 547.736L15.4043 548.825C19.043 560.347 24.962 571.804 33.0137 583.001C30.8447 581.564 28.902 580.082 27.1963 578.645H27.1953C18.3318 571.188 13.6555 563.328 13.3604 562.829C-1.81294 535.986 -1.09353 513.756 5.29102 496.657C11.6953 479.506 23.8406 467.413 31.6631 460.995L31.6641 460.996C35.1597 458.131 39.0671 455.908 43.2793 454.396L43.2803 454.395Z" fill="white" stroke="#04ADF3" stroke-width="2"/>
<path d="M30.4683 477.798C40.9775 474.255 47.8297 473.968 52.2397 474.849C56.651 475.729 58.6717 477.785 59.5327 479.035L59.8315 479.468H59.8579C61.2794 481.337 63.2249 482.729 65.4146 483.411L65.4155 483.412L103.299 495.162C91.6713 506.843 82.6258 520.092 76.4067 534.616L75.7944 536.073C73.0276 542.783 70.8579 549.768 69.2837 556.995L30.5649 541.803C28.4465 540.97 26.1524 540.614 23.8989 540.776L23.4487 540.815C20.9519 541.066 19.0257 540.833 17.7983 540.286C15.4937 530.346 15.2112 521.643 15.7856 514.597C17.2256 496.849 24.2351 485.568 24.7856 484.713C26.6726 482.26 28.5673 479.956 30.4683 477.798Z" fill="white" stroke="#04ADF3" stroke-width="2"/>
<path d="M419.12 12.8335C420.99 11.9995 424.196 11.4459 429.418 12.8667L429.93 13.0112C431.084 13.3968 445.231 18.0192 455.694 22.7837V22.7847C459.538 24.5394 463.037 25.9725 466.384 27.1567C473.288 29.6082 485.948 34.9172 500.917 44.9263C478.882 97.7345 434.07 137.476 428.259 142.487C387.57 142.181 352.765 119.761 348.163 116.667C347.786 115.735 347.07 113.68 346.954 111.357C346.838 109.037 347.32 106.554 349.233 104.6L372.611 127.547C376.595 131.453 383.249 133.228 388.8 134.055C394.314 134.877 399 134.798 399.543 134.786V134.787H399.961L400.144 134.711L400.333 134.633L400.333 134.634C423.692 125.487 439.437 113.442 446.899 98.7261C453.05 86.5945 451.826 75.8544 450.543 70.5151C450.034 68.3929 449.057 66.3705 447.71 64.6313L447.436 64.2876L435.417 49.6353C428.505 39.2533 420.259 30.3199 410.765 22.8979L416.373 15.1968L416.396 15.1636L416.417 15.1294L416.519 14.9634L416.542 14.9272L416.56 14.8892C416.579 14.8556 417.236 13.6737 419.12 12.8335Z" fill="#04ADF3" stroke="#04ADF3" stroke-width="2"/>
<path d="M368.909 479.888C366.008 482.675 359.317 489.48 353.169 498.457L352.7 499.143L352.714 499.156C343.48 512.875 339.148 526.337 340.191 538.411C335.878 536.014 331.992 533.964 330.107 533.257C327.692 532.35 323.927 530.364 320.361 527.35C316.796 524.336 313.488 520.345 311.879 515.441C309.322 507.647 311.213 498.596 317.833 488.461V488.46C322.358 481.52 327.273 472.885 332.194 463.645L368.909 479.888Z" fill="#04ADF3" stroke="#04ADF3" stroke-width="2"/>
<path d="M370.773 484.378C371.434 486.22 372.783 487.751 374.528 488.639V488.64L402.391 502.833L380.288 533.039L379.124 534.63H379.432C378.027 537.672 375.571 545.312 376.593 560.163C370.405 557.034 364.245 553.469 360.192 550.016L360.152 549.981L360.108 549.951L359.933 549.831L359.906 549.813L359.879 549.797L354.838 546.814C352.131 545.223 348.634 543.184 345.096 541.164C342.823 528.552 347.77 515.746 354.233 505.19C360.065 495.667 367.051 488.106 370.773 484.378Z" fill="#04ADF3" stroke="#04ADF3" stroke-width="2"/>
<path d="M391.101 141.256C402.201 144.502 414.672 146.843 427.767 146.994C431.614 153.929 452.369 193.396 460.909 251.485C469.571 310.416 467.046 401.066 405.747 498.253L405.093 499.147L376.571 484.622C375.835 484.247 375.268 483.592 374.996 482.809L374.945 482.65L373.817 478.699C397.033 426.718 412.259 376.428 419.037 329.21C424.497 291.22 424.538 255.115 419.146 221.908H419.144C412.194 179.086 397.829 152.064 391.101 141.256Z" fill="#04ADF3" stroke="#04ADF3" stroke-width="2"/>
<path d="M353.277 125.096C360.162 129.033 370.99 134.559 384.254 139.078C387.041 142.917 406.123 170.678 414.576 221.901L414.561 221.909L414.678 222.635C422.981 273.771 421.992 359.125 370.262 475.561L334.285 459.638C351.05 427.576 367.243 390.021 367.468 389.505L367.472 389.497L367.475 389.489L367.521 389.379L367.538 389.34L367.55 389.301C367.69 388.867 374.311 368.058 380.566 340.171C386.817 312.303 392.724 277.276 391.392 248.439C390.096 220.398 386.058 197.546 378.65 176.528C371.994 157.64 362.741 140.678 353.277 125.096Z" fill="#04ADF3" stroke="#04ADF3" stroke-width="2"/>
<path d="M504.704 47.5327C532.39 67.0493 566.735 102.439 587.487 164.684L587.488 164.686C588.388 167.367 589.915 169.781 591.932 171.692V171.711L592.264 172.01C596.912 176.182 607.65 190.001 600.742 225.358C600.153 228.37 599.962 231.432 600.181 234.458C602.206 262.454 607.811 409.552 518.961 552.9C516.32 557.159 512.86 560.8 508.666 563.734C502.435 568.089 491.437 575.117 478.977 580.118C466.49 585.129 452.708 588.032 440.815 584.375L397.286 569.361C396.872 569.2 389.637 566.419 381.281 562.469C380.366 552.494 381.043 545.775 381.945 541.56C382.404 539.413 382.922 537.914 383.317 536.963C383.515 536.488 383.681 536.149 383.795 535.935C383.853 535.828 383.897 535.752 383.924 535.707C383.935 535.689 383.943 535.676 383.948 535.667L409.427 500.85L409.449 500.821L409.468 500.79L409.513 500.715C436.907 457.301 455.093 411.514 463.566 364.629C470.344 327.116 470.945 288.826 465.362 250.825C456.894 193.237 436.527 153.614 431.951 145.256C435.721 141.965 446.569 132.179 459.206 117.789C473.214 101.834 492.301 76.8557 504.704 47.5327Z" fill="#04ADF3" stroke="#04ADF3" stroke-width="2"/>
<path d="M223.758 95.9224C258.09 59.7367 294.157 42.272 330.993 43.7046L332.748 43.7876C365.241 45.5902 392.506 62.0709 409.7 75.6421C425.103 87.7997 435.324 99.794 438.481 103.688C430.58 114.114 417.412 123.06 399.065 130.302C397.78 130.303 393.578 130.252 388.913 129.516C383.924 128.729 378.671 127.196 375.756 124.337L348.72 97.8003L348.664 97.7446C348.46 97.521 348.085 97.1286 347.528 96.6294L347.02 96.1313V96.187C344.129 93.7572 337.69 89.5985 326.882 88.894L326.187 88.854C307.921 87.9284 276.111 97.1095 227.082 145.01L227.073 145.018C226.948 145.143 217.632 154.852 208.888 167.902C197.088 185.519 191.75 200.737 193.35 213.011L196.191 243.24C196.191 243.248 196.192 243.253 196.192 243.254C196.193 243.266 196.193 243.277 196.194 243.285C196.195 243.3 196.197 243.317 196.199 243.333C196.202 243.368 196.208 243.414 196.214 243.469C196.227 243.58 196.246 243.737 196.27 243.936C196.315 244.303 196.38 244.815 196.462 245.445C196.274 246.468 195.515 250.141 193.654 254.421C191.689 258.941 188.534 264.05 183.617 267.471L183.616 267.472C181.758 268.768 180.26 270.554 179.151 272.751C178.756 273.529 177.95 274.624 176.294 275.603C159.882 233.622 173.324 187.387 187.711 155.724V155.723C203.07 121.895 222.594 97.3722 223.758 95.9224Z" fill="white" stroke="#04ADF3" stroke-width="2"/>
<path d="M202.295 328.721C202.316 328.721 202.328 328.723 202.334 328.726C202.339 328.727 202.347 328.732 202.358 328.741C202.377 328.757 202.385 328.769 202.389 328.775C202.392 328.782 202.397 328.793 202.398 328.812V328.814L203.165 336.728L203.166 336.738C203.168 336.753 203.164 336.775 203.145 336.799C203.124 336.823 203.1 336.834 203.08 336.836H203.075L174.574 339.614C174.508 339.619 174.468 339.573 174.464 339.531L174.463 339.526L173.696 331.613L173.689 331.548C173.692 331.543 173.695 331.537 173.699 331.532C173.719 331.508 173.743 331.498 173.763 331.496L173.768 331.495L202.231 328.721H202.295Z" fill="white" stroke="#04ADF3" stroke-width="2"/>
<path d="M199.563 351.666C199.583 351.666 199.595 351.669 199.601 351.671C199.606 351.673 199.615 351.677 199.626 351.687C199.644 351.702 199.652 351.714 199.656 351.721C199.659 351.727 199.664 351.738 199.666 351.757L199.667 351.76L200.063 355.868L200.064 355.879C200.066 355.894 200.062 355.916 200.042 355.94C200.022 355.965 199.998 355.975 199.978 355.977L199.973 355.978L182.263 357.703C182.255 357.704 182.225 357.703 182.182 357.669L182.166 357.655C182.162 357.65 182.157 357.647 182.156 357.645C182.152 357.638 182.148 357.627 182.146 357.608V357.605L181.75 353.497L181.748 353.486L181.75 353.459C181.754 353.449 181.76 353.437 181.77 353.425C181.79 353.4 181.814 353.391 181.833 353.389L181.838 353.388L199.499 351.666H199.563Z" fill="white" stroke="#04ADF3" stroke-width="2"/>
<path d="M198.066 255.702C198.485 258.066 198.968 260.516 199.507 262.803L207.516 306.115V306.116L207.553 306.319L207.584 306.491L207.671 306.642L207.773 306.817C208.191 307.612 212.969 316.812 212.745 326.468V326.731L212.75 326.786C212.819 327.403 219.896 385.396 221.316 406.669C221.5 409.443 222.829 412.06 224.959 413.842V413.843C226.734 415.325 229.584 417.857 232.274 420.881C234.416 423.289 236.41 425.96 237.698 428.623C226.112 424.422 200.942 419.751 175.502 443.752C173.44 441.415 169.461 437.755 164.063 436.925H164.062C161.387 436.517 158.738 436.854 156.139 437.903C157.419 434.594 159.326 430.505 161.999 426.666V426.665C163.533 424.459 164.29 421.901 164.2 419.264L164.199 419.259C164.097 416.673 164.144 413.244 164.761 411.058L164.762 411.059C165.134 409.754 165.313 408.471 165.291 407.22L165.269 406.686L159.941 323.279L159.939 323.248L159.935 323.217L157.166 301.462H157.165C157.047 300.5 156.693 299.585 156.149 298.795L155.904 298.464C155.767 298.287 155.671 298.092 155.618 297.887L155.579 297.677L154.237 285.853L163.076 282.782L163.08 282.781C163.783 282.533 164.54 282.403 165.315 282.403H165.32C176.662 282.347 181.332 278.415 183.169 274.771L183.17 274.771C183.868 273.382 184.755 272.277 185.796 271.455L185.807 271.459L186.219 271.171C192.249 266.966 195.906 260.848 198.066 255.702ZM202.388 387.63L202.149 387.647L184.581 389.355L184.574 389.356C183.334 389.485 182.217 390.085 181.423 391.042C180.621 392.009 180.26 393.235 180.376 394.471V394.475L180.764 398.436C181 400.857 183.044 402.662 185.425 402.662C185.59 402.662 185.748 402.649 185.862 402.641L185.873 402.64L185.882 402.639L203.454 400.931L203.46 400.93C204.701 400.801 205.817 400.202 206.611 399.244L207.969 397.605H207.476C207.647 397.031 207.706 396.425 207.649 395.815V395.812L207.261 391.851C207.021 389.36 204.856 387.508 202.388 387.63ZM210.767 369.462C210.135 367.367 208.087 365.934 205.833 366.161L177.47 368.922C174.896 369.17 173.02 371.461 173.266 374.029V374.03L174.024 381.806V381.812C174.153 383.052 174.753 384.168 175.71 384.962L175.72 384.97C176.565 385.653 177.598 386.032 178.685 386.032C178.85 386.032 179.007 386.02 179.122 386.011H179.131L179.142 386.01L207.505 383.248L207.506 383.249C210.081 383.002 211.958 380.709 211.711 378.141V378.14L210.955 370.365L210.867 369.462H210.767ZM202.484 348.2C201.539 347.423 200.336 347.06 199.116 347.177H199.114L181.454 348.898H181.443L181.394 348.903C178.871 349.151 177.008 351.402 177.255 353.938L177.653 358.047C177.771 359.271 178.362 360.384 179.318 361.163C180.15 361.843 181.176 362.21 182.24 362.21C182.405 362.21 182.563 362.197 182.676 362.188L182.687 362.188L182.697 362.187L200.407 360.46H200.408C202.852 360.22 204.677 358.1 204.563 355.661L204.546 355.425L204.149 351.316C204.038 350.169 203.512 349.119 202.659 348.35L202.484 348.2ZM205.226 325.264C204.282 324.486 203.078 324.123 201.858 324.24H201.857L173.343 327.02H173.342C170.819 327.267 168.956 329.518 169.204 332.055L169.97 339.967V339.97C170.206 342.351 172.21 344.131 174.557 344.131C174.714 344.131 174.874 344.118 174.985 344.109L174.995 344.108L175.005 344.107L203.519 341.328C205.964 341.088 207.789 338.968 207.675 336.529L207.658 336.293L206.892 328.381C206.782 327.233 206.254 326.183 205.401 325.414L205.226 325.264Z" fill="white" stroke="#04ADF3" stroke-width="2"/>
</svg>
