<svg width="654" height="741" viewBox="0 0 654 741" fill="none" xmlns="http://www.w3.org/2000/svg">
<path d="M182.5 708.978C175.291 699.083 171.002 685.621 169.743 668.97C168.743 655.747 169.653 640.486 172.432 623.595C176.831 596.88 184.62 574.412 185.749 571.244C164.324 574.133 148.097 586.096 138.159 595.79C127.931 605.765 122.112 615.38 121.152 617.029C113.294 643.734 116.243 666.002 121.012 681.383C127.731 703.051 139.388 716.064 139.998 716.734C160.374 736.163 183.24 738.402 198.847 736.862C211.714 735.593 221.852 731.635 226.052 729.776C206.645 729.017 192.018 722.041 182.5 708.978Z" fill="white"/>
<path d="M190.888 739.981C175.481 739.981 155.875 735.644 138.099 718.673L138.039 718.613C137.529 718.073 125.531 705.011 118.462 682.313C114.313 668.99 112.764 655.128 113.863 641.106C115.233 623.606 120.742 605.815 130.24 588.235C130.4 587.955 144.727 563.199 164.253 547.658L164.623 547.348L163.614 505.521C157.275 508.11 136.379 517.544 116.693 536.514C95.1069 557.302 70.5817 594.162 76.3206 651.7C76.3306 651.82 78.1303 666.362 86.6786 683.243C94.5371 698.754 109.894 719.493 138.428 730.167L138.528 730.207C138.668 730.277 152.896 736.813 171.572 739.681C184.48 741.66 201.566 742.14 217.543 735.853C212.574 737.383 206.285 738.872 199.137 739.571C196.567 739.821 193.818 739.981 190.908 739.981H190.888Z" fill="white"/>
<path d="M223.242 400.109L192.528 403.097C191.828 403.167 191.318 403.787 191.388 404.487L192.208 412.902C192.238 413.242 192.408 413.542 192.668 413.761C192.928 413.981 193.258 414.081 193.598 414.041L224.312 411.053C225.012 410.983 225.522 410.363 225.452 409.664L224.632 401.249C224.572 400.589 224.012 400.099 223.362 400.099C223.322 400.099 223.282 400.099 223.242 400.099V400.109Z" fill="white"/>
<path d="M191.138 484.523V562.18C191.558 562.2 191.858 562.2 192.028 562.2L268.013 539.452C268.723 539.242 269.163 538.533 269.053 537.803L267.813 529.987L260.035 469.131C251.087 464.993 221.262 454.839 191.148 484.523H191.138Z" fill="white"/>
<path d="M192.458 564.898H192.278C192.188 564.898 191.648 564.918 190.738 564.868L188.458 571.744C188.358 572.014 179.79 595.621 175.111 624.075C170.812 650.181 168.992 685.811 184.699 707.379C194.797 721.241 211.104 727.868 233.17 727.068C274.022 712.586 298.147 686.261 304.876 648.742C310.095 619.648 302.326 594.412 302.246 594.162L302.196 593.952C298.607 570.105 289.619 554.244 282.71 545.139C278.041 538.982 273.662 534.995 271.022 532.866L271.742 537.353C272.072 539.422 270.812 541.431 268.803 542.031L192.468 564.888L192.458 564.898Z" fill="white"/>
<path d="M219.383 423.366C219.383 423.366 219.303 423.366 219.263 423.366L200.237 425.215C199.897 425.245 199.597 425.415 199.377 425.675C199.157 425.935 199.057 426.265 199.097 426.605L199.517 430.892C199.587 431.592 200.207 432.112 200.907 432.032L219.933 430.183C220.273 430.153 220.573 429.983 220.793 429.723C221.013 429.463 221.113 429.133 221.073 428.793L220.653 424.506C220.593 423.846 220.033 423.356 219.383 423.356V423.366Z" fill="white"/>
<path d="M169.552 555.913C177.431 560.041 184.37 561.46 188.429 561.94V484.373C187.429 483.004 183.13 477.587 177.051 476.667C173.352 476.107 169.592 477.317 165.873 480.255C165.803 480.515 165.753 480.715 165.723 480.835L167.453 552.545C167.483 553.964 168.283 555.254 169.542 555.913H169.552Z" fill="white"/>
<path d="M178.991 301.874C182.69 301.854 185.56 301.424 187.789 300.774C179.421 280.006 176.921 256.609 180.361 231.233C183.11 210.904 189.659 189.266 199.827 166.918C217.103 128.919 239.179 101.624 239.409 101.355L239.479 101.275C277.982 60.6771 318.714 41.2778 360.545 43.5965C396.778 45.6154 427.043 63.9253 446.049 78.937C463.006 92.3296 474.273 105.552 477.773 109.87C478.782 108.321 479.702 106.752 480.512 105.152C486.631 93.0892 485.421 82.475 484.151 77.2179C483.692 75.3289 482.792 73.52 481.542 71.9908L468.375 55.9297C439.89 13.0335 395.019 1.98955 362.385 0.270501C326.922 -1.59846 297.888 6.82689 297.598 6.90684C240.179 24.3672 199.097 62.6659 174.742 91.7099C148.317 123.232 135.329 150.987 135.199 151.267C102.186 221.888 136.569 278.936 147.897 294.747C149.157 296.506 150.856 297.906 152.826 298.795C160.374 302.223 163.564 304.842 164.814 306.151L175.342 302.493C176.511 302.083 177.741 301.874 179.001 301.874H178.991Z" fill="white"/>
<path d="M132.61 589.554C129.32 595.641 126.621 601.567 124.431 607.324C127.301 603.496 131.23 598.779 136.209 593.912C146.667 583.707 163.864 571.074 186.719 568.406L187.969 564.638C183.64 564.108 176.471 562.609 168.293 558.321C166.163 557.212 164.813 555.023 164.753 552.615L164.713 550.786C146.227 566.057 132.75 589.324 132.62 589.564L132.61 589.554Z" fill="white"/>
<path d="M25.7603 589.154C23.8107 589.354 21.3512 589.384 19.1416 588.784C23.0808 603.236 30.9693 619.847 45.5865 637.597C53.185 640.855 62.3332 643.004 72.9211 642.474C72.3612 630.181 73.1411 618.348 75.2607 607.064L31.6992 589.973C29.8095 589.234 27.7599 588.944 25.7603 589.154Z" fill="white"/>
<path d="M128.381 522.941C124.731 517.514 106.325 492.118 80.41 490.749C65.4729 489.969 50.6058 497.185 36.0586 512.237C56.7546 506.3 64.673 512.117 67.5825 516.365C68.6623 517.934 70.2119 519.093 71.9416 519.633L116.113 533.325C120.212 529.477 124.351 526.019 128.381 522.941Z" fill="white"/>
<path d="M13.3129 556.542C15.0525 535.674 23.3609 523.031 23.7109 522.501L23.7609 522.431C42.0773 498.594 61.1936 487.021 80.5698 488.05C93.1374 488.72 105.915 494.906 117.523 505.94C124.331 512.427 128.83 518.713 130.57 521.312C130.91 521.062 131.24 520.822 131.58 520.572C129.84 516.394 121.652 499.044 102.915 490.169C87.2685 482.763 68.2922 482.983 46.4964 490.819C41.8173 492.498 37.4782 494.966 33.5989 498.144C16.5123 512.157 -19.6507 551.085 13.5328 609.753C13.5828 609.833 18.7318 618.728 28.7499 627.153C31.7993 629.721 35.5386 632.42 39.9177 634.829C29.5597 621.386 22.0912 607.584 17.712 593.721C13.7728 581.278 12.2931 568.765 13.3129 556.532V556.542Z" fill="white"/>
<path d="M65.3531 517.894C63.1835 514.746 55.645 508.319 32.3695 516.235C30.2199 518.663 28.0803 521.262 25.9507 524.03C25.4808 524.75 17.6123 537.203 16.0127 556.912C15.3728 564.758 15.7027 574.462 18.3322 585.546C19.9119 586.446 22.4214 586.766 25.5008 586.456C27.9203 586.206 30.4099 586.556 32.6994 587.455L75.811 604.366C77.5207 596.161 79.9402 588.245 83.0696 580.659C89.9783 563.928 100.356 548.737 113.894 535.464L71.1519 522.211C68.8424 521.492 66.7928 519.963 65.3631 517.894H65.3531Z" fill="white"/>
<path d="M543.73 48.224C527.113 37.0102 513.016 31.0935 505.357 28.375C501.768 27.1057 498.009 25.5666 493.869 23.6777C482.102 18.3206 465.985 13.1035 465.825 13.0435C453.497 9.47553 450.208 15.3722 450.078 15.6321L449.968 15.812L443.279 24.9969C453.827 33.0924 462.965 42.907 470.594 54.3706L483.641 70.2719C485.151 72.1108 486.241 74.2896 486.791 76.5783C488.14 82.1952 489.44 93.539 482.932 106.372C475.023 121.963 458.256 134.866 433.081 144.721L432.861 144.811H432.621C431.801 144.831 412.315 145.22 404.217 137.285L378.172 111.729C372.123 116.706 375.372 125.281 376.112 127C379.872 129.559 418.644 155.125 464.115 155.315C468.954 151.177 519.454 107.101 543.73 48.224Z" fill="white"/>
<path d="M383.301 540.141C390.709 529.327 398.858 521.441 401.147 519.313L401.047 518.953L359.215 500.453C353.736 510.777 348.258 520.422 343.239 528.118C335.97 539.242 333.76 549.386 336.67 558.251C340.319 569.365 351.597 576.161 357.056 578.21C359.265 579.04 364.254 581.708 369.663 584.746C367.824 571.284 372.503 555.932 383.311 540.151L383.301 540.141Z" fill="white"/>
<path d="M412.645 577.601L437.33 543.88L406.026 527.938C404.237 527.029 402.887 525.4 402.337 523.461L401.997 522.251C394.949 529.068 367.184 558.042 372.693 586.446C380.641 590.973 388.53 595.681 389.12 596.031L389.31 596.16C394.179 600.308 401.727 604.556 408.996 608.144C407.106 585.736 412.425 577.931 412.665 577.601H412.645Z" fill="white"/>
<path d="M452.777 240.368C458.596 276.188 458.556 315.156 452.657 356.183C445.319 407.285 428.812 461.745 403.617 518.064L404.946 522.721C405.296 523.93 406.136 524.95 407.256 525.52L438.96 541.661L440.24 539.912C506.797 434.44 509.546 336.035 500.138 272.05C490.61 207.266 467.084 163.81 463.825 158.033C448.428 157.933 433.801 154.995 420.993 151.017C427.252 160.512 444.679 190.485 452.777 240.378V240.368Z" fill="white"/>
<path d="M450.098 240.797C440.75 183.239 418.994 152.666 416.744 149.628C399.618 143.831 386.22 136.455 379.342 132.277C390.35 150.127 401.277 169.597 408.976 191.435C416.954 214.062 421.314 238.688 422.713 268.962C425.583 331.087 397.238 420.148 396.948 421.047L396.898 421.167C396.658 421.717 378.792 463.144 360.465 498.035L401.467 516.175C457.996 389.455 459.126 296.516 450.078 240.807L450.098 240.797Z" fill="white"/>
<path d="M642.02 185.368C639.801 183.38 638.121 180.801 637.151 177.912C614.326 109.47 576.343 70.8718 546.009 49.7935C532.662 81.9157 511.736 109.331 496.409 126.781C481.932 143.262 469.634 154.146 466.345 156.984C470.254 163.99 493.379 207.486 502.818 271.651C508.846 312.668 508.196 353.995 500.878 394.483C491.73 445.085 472.094 494.517 442.499 541.401L442.449 541.481L414.845 579.19C414.805 579.24 409.656 587.076 411.825 609.533C421.323 614.051 429.642 617.229 429.792 617.289L476.983 633.56C503.457 641.706 537.841 620.547 551.398 611.073C556.057 607.814 559.906 603.767 562.846 599.029C659.227 443.585 653.148 284.094 650.949 253.701C650.719 250.522 650.919 247.304 651.539 244.136C659.077 205.567 647.389 190.196 642.02 185.378V185.368Z" fill="white"/>
<path d="M376.832 106.632L406.107 135.356C412.945 142.062 430.092 142.132 432.312 142.122C452.768 134.076 467.465 124.042 476.153 112.208C473.464 108.83 462.036 95.028 444.289 81.0257C425.593 66.2739 395.859 48.2839 360.356 46.315C319.383 44.0562 279.381 63.1556 241.469 103.113C240.519 104.293 219.093 131.058 202.266 168.108C186.529 202.728 171.702 253.67 190.329 299.835C193.048 298.555 194.338 296.916 194.948 295.717C196.077 293.478 197.587 291.689 199.437 290.4C210.545 282.674 213.514 267.473 213.824 265.704C213.624 264.184 213.514 263.255 213.514 263.215L210.435 230.443C208.745 217.55 214.344 201.349 227.081 182.34C236.5 168.287 246.538 157.833 246.638 157.733C299.637 105.972 333.801 96.2773 353.137 97.2567C368.974 98.0563 376.123 105.832 376.832 106.642V106.632Z" fill="white"/>
<path d="M186.999 359.042L187.829 367.607C187.889 368.257 188.469 368.737 189.129 368.677L219.993 365.669C220.643 365.609 221.133 365.019 221.063 364.369L220.233 355.804C220.203 355.484 220.053 355.204 219.803 354.994C219.583 354.815 219.323 354.725 219.043 354.725C219.003 354.725 218.963 354.725 218.923 354.725L188.049 357.733C187.399 357.793 186.909 358.383 186.979 359.032L186.999 359.042Z" fill="white"/>
<path d="M196.587 387.986C196.837 388.186 197.147 388.286 197.457 388.256L216.634 386.387C217.283 386.327 217.773 385.737 217.703 385.088L217.273 380.64C217.243 380.32 217.093 380.04 216.843 379.83C216.624 379.651 216.364 379.561 216.084 379.561C216.044 379.561 216.004 379.561 215.964 379.561L196.787 381.43C196.138 381.489 195.648 382.079 195.718 382.729L196.148 387.176C196.178 387.496 196.327 387.776 196.577 387.986H196.587Z" fill="white"/>
<path d="M200.986 292.619C199.506 293.648 198.287 295.097 197.367 296.926C195.617 300.394 191.018 304.532 179 304.592C178.041 304.592 177.101 304.752 176.221 305.062L165.833 308.67L167.383 322.332C167.443 322.842 167.643 323.322 167.963 323.731C168.582 324.511 168.982 325.45 169.102 326.44L172.102 349.987L177.871 440.267C177.961 441.666 177.791 443.125 177.361 444.634C176.641 447.183 176.601 451.051 176.711 453.849C176.801 456.468 176.051 459.006 174.521 461.205C170.832 466.502 168.473 472.209 167.133 476.127C170.542 474.178 174.001 473.468 177.481 473.998C183.66 474.948 188.079 479.585 189.948 481.894C219.243 453.599 248.277 461.285 259.335 465.863C256.795 458.227 248.167 450.361 244.278 447.113C242.198 445.374 240.898 442.815 240.718 440.107C239.179 417.05 231.51 354.224 231.44 353.595V353.495V353.395C231.7 342.221 225.961 331.657 225.911 331.557L225.801 331.367L225.761 331.147L217.083 284.233C216.193 280.465 215.443 276.268 214.863 272.62C212.894 278.586 208.845 287.172 201.016 292.629L200.986 292.619ZM222.882 431.452C222.202 432.271 221.252 432.781 220.192 432.891L201.166 434.74C201.036 434.75 200.906 434.76 200.776 434.76C198.747 434.76 197.007 433.221 196.807 431.162L196.387 426.874C196.287 425.815 196.597 424.775 197.277 423.956C197.957 423.136 198.907 422.627 199.966 422.517L218.993 420.668C221.172 420.448 223.132 422.057 223.342 424.246L223.762 428.533C223.862 429.593 223.552 430.632 222.872 431.452H222.882ZM227.341 400.989L228.161 409.404C228.371 411.593 226.771 413.542 224.582 413.752L193.868 416.74C193.738 416.75 193.608 416.76 193.478 416.76C192.558 416.76 191.678 416.44 190.948 415.85C190.128 415.171 189.618 414.221 189.508 413.162L188.689 404.747C188.479 402.558 190.078 400.609 192.268 400.399L222.982 397.411C225.161 397.191 227.121 398.8 227.331 400.989H227.341ZM196.527 378.731L215.703 376.862C216.743 376.762 217.763 377.072 218.563 377.731C219.373 378.391 219.873 379.331 219.973 380.37L220.402 384.818C220.612 386.966 219.033 388.875 216.893 389.085L197.717 390.954C197.587 390.964 197.457 390.974 197.327 390.974C196.427 390.974 195.557 390.664 194.847 390.085C194.038 389.425 193.538 388.485 193.438 387.446L193.008 382.999C192.798 380.85 194.377 378.941 196.517 378.731H196.527ZM218.673 352.036C219.713 351.936 220.732 352.246 221.532 352.905C222.342 353.565 222.842 354.504 222.942 355.544L223.772 364.109C223.982 366.258 222.402 368.167 220.262 368.377L189.388 371.385C189.258 371.395 189.128 371.405 189.009 371.405C187.019 371.405 185.319 369.896 185.119 367.877L184.289 359.312C184.079 357.163 185.659 355.254 187.799 355.044L218.673 352.036Z" fill="white"/>
</svg>
