<svg width="450" height="450" viewBox="0 0 450 450" fill="none" xmlns="http://www.w3.org/2000/svg">
<g clip-path="url(#clip0_89_20)">
<rect width="450" height="450" rx="30" fill="white"/>
<path d="M358.851 333.156C364.118 365.592 364.082 400.879 358.743 438.03C352.1 484.303 337.158 533.618 314.352 584.615L315.555 588.833C315.872 589.928 316.632 590.851 317.646 591.367L346.344 605.983L347.502 604.399C407.749 508.893 410.238 419.785 401.722 361.846C393.097 303.182 371.802 263.832 368.852 258.601C354.914 258.511 341.674 255.85 330.081 252.248C335.746 260.846 351.521 287.987 358.851 333.166V333.156Z" fill="white"/>
<path d="M356.426 333.546C347.964 281.426 328.271 253.742 326.234 250.99C310.732 245.741 298.604 239.062 292.378 235.279C302.342 251.443 312.234 269.073 319.202 288.847C326.424 309.337 330.37 331.636 331.637 359.049C334.235 415.305 308.578 495.951 308.315 496.766L308.27 496.874C308.053 497.372 291.88 534.885 275.291 566.479L312.406 582.905C363.575 468.158 364.598 384.001 356.408 333.555L356.426 333.546Z" fill="white"/>
<path d="M320.94 77.9074C322.522 77.8832 385.385 76.7487 455.529 99.5705C520.604 120.741 605.12 167.361 639.34 269.43L639.363 269.5L639.394 269.568L657.363 309.381C658.975 312.969 659.771 316.916 659.681 320.784L659.681 320.785C659.399 331.934 656.139 353.794 637.453 374.656L637.452 374.657C635.413 376.936 633.231 379.137 630.927 381.28C625.316 368.933 609.857 337.377 584.08 302.722C553.608 261.756 501.945 207.8 429.108 183.859L429.107 183.859C344.947 156.223 251.27 173.694 150.787 235.446L150.762 235.46L150.739 235.477L150.553 235.601L150.545 235.607L150.536 235.613C149.832 236.1 90.0602 279.677 34.1972 347.668C1.82973 387.04 -23.0542 426.953 -39.7713 466.337L-40.5618 468.211C-61.206 517.554 -68.9939 566.175 -63.6677 612.739C-67.7869 612.679 -72.7497 612.059 -78.7205 610.584L-80.0928 610.234C-82.8 609.512 -85.5667 609.256 -88.3206 609.465L-110.75 611.111C-113.015 607.315 -118.394 600.373 -130.948 590.036L-130.95 590.035L-131.561 589.516C-134.572 586.875 -136.888 583.516 -138.302 579.746C-152.61 541.61 -191.098 407.603 -86.1526 282.589L-86.1509 282.586C-85.7833 282.146 -44.4021 232.882 26.2501 183.259C91.3693 137.539 195.316 82.1767 320.94 77.9074Z" fill="#04ADF3" stroke="#04ADF3" stroke-width="2.94455"/>
<path d="M154.639 242.909C253.077 182.572 344.192 165.738 425.575 192.426C496.155 215.597 546.497 268.021 576.34 308.031C603.592 344.566 619.096 377.554 623.426 387.342C599.72 405.965 565.131 418.037 520.079 423.183C517.425 422.477 508.016 419.864 497.96 415.394C487.447 410.721 476.59 404.176 471.728 395.941L427.934 321.7L427.825 321.516C426.091 318.153 415.187 299.156 384.122 289.127C344.834 276.437 269.761 277.758 133.876 354.106L133.862 354.114C133.55 354.294 108.21 369.626 81.8053 392.508L80.5473 393.603C44.2799 425.333 23.7683 455.472 20.102 483.098L8.52917 551.286L8.53131 551.285C8.51873 551.352 8.50732 551.408 8.50561 551.419C8.49392 551.493 8.47934 551.594 8.46103 551.717C8.42422 551.966 8.37244 552.321 8.30923 552.771C8.18888 553.627 8.02422 554.836 7.82702 556.329C6.87424 558.347 2.99258 566.147 -3.78126 574.662C-10.8098 583.496 -20.8643 592.991 -33.8817 597.684L-33.8838 597.684C-38.5929 599.388 -42.8281 602.349 -46.4823 606.439C-48.0054 608.134 -50.8047 610.32 -55.7282 611.499C-67.3795 510.494 -12.2039 417.555 37.6442 356.169L40.0266 353.255C93.9118 287.702 151.495 245.21 154.639 242.909Z" fill="#04ADF3" stroke="#04ADF3" stroke-width="2.94455"/>
<path d="M118.271 440.618L119.022 448.374C119.077 448.962 119.602 449.397 120.199 449.342L148.137 446.618C148.725 446.564 149.168 446.03 149.105 445.442L148.354 437.686C148.327 437.396 148.191 437.143 147.965 436.953C147.766 436.79 147.53 436.708 147.277 436.708C147.241 436.708 147.205 436.708 147.168 436.708L119.221 439.433C118.633 439.487 118.19 440.021 118.253 440.609L118.271 440.618Z" fill="white"/>
</g>
<defs>
<clipPath id="clip0_89_20">
<rect width="450" height="450" rx="30" fill="white"/>
</clipPath>
</defs>
</svg>
