<svg width="450" height="450" viewBox="0 0 450 450" fill="none" xmlns="http://www.w3.org/2000/svg">
<g clip-path="url(#clip0_89_4)">
<rect width="450" height="450" rx="30" fill="white"/>
<path d="M253.062 214.622C251.032 220.555 244.898 239.505 241.262 261.595C238.685 277.256 237.837 291.438 238.768 303.753C239.903 318.772 243.691 331.099 250.109 340.344L250.738 341.229C259.009 352.583 271.34 359.032 287.359 360.562C282.589 362.336 275.25 364.547 266.545 365.406C252.329 366.809 231.552 364.773 213.017 347.112C212.318 346.34 201.801 334.483 195.715 314.85C191.365 300.815 188.665 280.49 195.813 256.093C196.837 254.351 202.129 245.726 211.294 236.785C220.138 228.155 234.369 217.618 253.062 214.622Z" fill="#04ADF3" stroke="#04ADF3" stroke-width="2"/>
<path d="M234.025 190.855C215.862 205.339 202.577 228.307 202.414 228.593L202.402 228.614C193.573 244.962 188.437 261.532 187.16 277.857C186.135 290.938 187.58 303.872 191.45 316.303C198.038 337.465 209.223 349.662 209.758 350.229L209.767 350.238L209.841 350.312L209.85 350.32C219.831 359.853 230.436 365.131 240.438 367.829C232.368 366.504 225.267 364.465 220.097 362.713C217.389 361.795 215.213 360.959 213.71 360.349C212.199 359.735 211.384 359.358 211.384 359.358L211.347 359.34L211.309 359.324L211.206 359.283L211.195 359.279L209.983 358.815C184.715 348.943 171.017 330.379 163.943 316.412C160.035 308.691 157.668 301.502 156.278 296.231C154.888 290.959 154.482 287.635 154.481 287.64V287.632L154.48 287.624L154.362 286.39C149.645 235.134 171.152 201.981 190.536 182.929L191.465 182.025C208.308 165.79 226.122 157.166 233.14 154.16L234.025 190.855Z" fill="#04ADF3" stroke="#04ADF3" stroke-width="2"/>
<path d="M289.296 56.2773C289.389 56.283 289.454 56.3533 289.461 56.4277L289.462 56.4346L290.219 64.209V64.2109C290.226 64.2813 290.19 64.3473 290.13 64.3799L290.062 64.4004L261.699 67.1611L261.688 67.1621L261.679 67.1631C261.641 67.1676 261.612 67.1591 261.583 67.1348C261.552 67.1084 261.533 67.0829 261.523 67.0645C261.514 67.0471 261.509 67.0315 261.508 67.0156V67.0068L260.75 59.2324V59.2295L260.757 59.1621C260.776 59.0988 260.831 59.0495 260.904 59.041L289.271 56.2803L289.296 56.2773Z" fill="white" stroke="#04ADF3" stroke-width="2"/>
<path d="M298.726 115.442C309.464 114.872 317.992 117.842 322.23 119.733L329.344 175.401L329.346 175.417L329.349 175.432L330.491 182.645H330.492C330.521 182.837 330.403 183.011 330.237 183.061L330.233 183.062L260.523 203.938V133.701C274.156 120.383 287.651 116.03 298.726 115.442Z" fill="white" stroke="#04ADF3" stroke-width="2"/>
<path d="M334.717 180.46C337.046 182.555 340.095 185.654 343.297 189.878H343.298C349.59 198.174 357.815 212.674 361.102 234.52L361.108 234.561L361.118 234.602L361.164 234.796L361.173 234.833L361.185 234.869C361.185 234.872 361.192 234.895 361.206 234.941C361.221 234.99 361.243 235.061 361.27 235.153C361.323 235.338 361.4 235.607 361.495 235.957C361.686 236.657 361.95 237.68 362.251 238.985C362.852 241.597 363.599 245.341 364.194 249.913C365.386 259.062 365.968 271.503 363.581 284.812C357.448 319.023 335.509 343.067 298.15 356.357C278.077 357.051 263.437 351.004 254.386 338.574C247.291 328.828 244.11 315.834 243.219 302.188C242.329 288.557 243.731 274.381 245.709 262.363V262.362C247.861 249.268 250.91 237.284 253.433 228.54C254.694 224.169 255.822 220.61 256.641 218.13C257.05 216.89 257.382 215.92 257.614 215.253C257.73 214.92 257.822 214.662 257.885 214.484C257.916 214.396 257.941 214.326 257.958 214.278C257.967 214.255 257.974 214.236 257.979 214.223C257.981 214.216 257.983 214.21 257.984 214.206C257.986 214.202 257.986 214.2 257.986 214.2L257.992 214.185L257.998 214.168L259.867 208.527C259.969 208.529 260.062 208.532 260.145 208.532C260.333 208.533 260.63 208.528 260.576 208.528H261.156L261.278 208.405L331.535 187.359L331.536 187.36C333.874 186.663 335.336 184.328 334.952 181.923V181.922L334.717 180.46Z" fill="#04ADF3" stroke="#04ADF3" stroke-width="2"/>
<path d="M285.656 77.7705C285.73 77.7898 285.78 77.8496 285.786 77.9141V77.9209L286.175 81.8818L286.177 81.9014C286.181 81.9397 286.172 81.9691 286.147 81.998C286.121 82.0289 286.097 82.0467 286.078 82.0566C286.061 82.0661 286.045 82.0708 286.029 82.0723L286.021 82.0732L268.448 83.7812L268.44 83.7822L268.432 83.7832C268.361 83.791 268.268 83.7373 268.257 83.624L267.869 79.665L267.867 79.6455C267.863 79.6073 267.872 79.5787 267.896 79.5498C267.923 79.5188 267.947 79.5002 267.966 79.4902C267.983 79.4809 267.999 79.477 268.015 79.4756L268.023 79.4746L285.555 77.7705H285.656Z" fill="white" stroke="#04ADF3" stroke-width="2"/>
<path d="M237.072 129.914C240.262 127.473 243.373 126.549 246.365 127.002C248.924 127.389 251.154 128.734 252.886 130.184C254.4 131.452 255.486 132.762 256.022 133.465V203.65C252.277 203.099 246.517 201.728 240.054 198.341L239.919 198.271C239.15 197.813 238.669 196.992 238.65 196.094L238.649 196.091L237.056 129.977C237.061 129.957 237.067 129.936 237.072 129.914Z" fill="white" stroke="#04ADF3" stroke-width="2"/>
<path d="M234.179 196.597C234.372 199.024 235.785 201.202 237.961 202.337V202.338C244.929 205.992 251.125 207.493 255.27 208.114L254.692 209.854C233.596 212.512 217.741 224.204 208.097 233.617L208.096 233.618C205.612 236.047 203.408 238.437 201.486 240.681C202.753 237.82 204.159 234.916 205.716 231.97L205.72 231.974L206.359 230.793C206.357 230.797 206.402 230.717 206.507 230.54C206.607 230.37 206.753 230.124 206.943 229.81C207.324 229.18 207.883 228.274 208.604 227.148C210.045 224.896 212.133 221.766 214.749 218.203C219.657 211.518 226.398 203.343 234.179 196.597Z" fill="#04ADF3" stroke="#04ADF3" stroke-width="2"/>
<path d="M106.896 230.933C108.578 230.756 110.31 231 111.911 231.627V231.626L151.374 247.114C149.571 257.066 148.886 267.465 149.309 278.241C140.22 278.542 132.332 276.671 125.721 273.869C112.929 258.283 105.804 243.685 102.085 230.896C103.787 231.132 105.497 231.076 106.894 230.933H106.896Z" fill="white" stroke="#04ADF3" stroke-width="2"/>
<path d="M119.619 156.976C132.088 144.976 144.677 139.368 157.209 140.022V140.023C168.863 140.639 178.891 146.666 186.47 153.244C193.361 159.225 198.15 165.596 200.206 168.553C196.839 171.159 193.397 174.05 189.979 177.232L149.738 164.755H149.739C148.452 164.353 147.273 163.512 146.408 162.358L146.239 162.123C144.766 159.972 142.065 157.496 137.263 156.285C133.1 155.235 127.406 155.147 119.619 156.976Z" fill="white" stroke="#04ADF3" stroke-width="2"/>
<path d="M126.28 140.029C146.246 132.849 163.481 132.698 177.618 139.392V139.393C190.703 145.593 198.118 156.378 201.55 162.724C199.36 159.871 196.219 156.139 192.227 152.335L191.206 151.381C180.631 141.662 168.994 136.147 157.463 135.532C139.088 134.556 121.153 145.552 104.151 167.686L104.141 167.699L104.131 167.713L104.084 167.777L104.073 167.793L104.063 167.809C103.691 168.372 96.1643 179.855 94.3789 198.817L94.2988 199.717C93.3753 210.799 94.6451 222.117 98.0664 233.371L98.4043 234.46C102.043 245.982 107.962 257.439 116.014 268.636C113.845 267.198 111.902 265.717 110.196 264.279H110.195C101.332 256.822 96.6555 248.963 96.3604 248.464C81.1871 221.621 81.9065 199.391 88.291 182.292C94.6953 165.14 106.841 153.047 114.663 146.63L114.664 146.631C118.16 143.766 122.067 141.542 126.279 140.03L126.28 140.029Z" fill="white" stroke="#04ADF3" stroke-width="2"/>
<path d="M113.468 163.433C123.977 159.89 130.829 159.604 135.239 160.484C139.651 161.364 141.671 163.421 142.532 164.67L142.831 165.103H142.857C144.279 166.972 146.224 168.364 148.414 169.046L148.415 169.047L186.299 180.797C174.671 192.479 165.625 205.728 159.406 220.251L158.794 221.708C156.027 228.418 153.857 235.403 152.283 242.63L113.564 227.438C111.446 226.605 109.152 226.249 106.898 226.412L106.448 226.451C103.951 226.702 102.025 226.468 100.798 225.921C98.4932 215.981 98.2107 207.278 98.7852 200.232C100.225 182.484 107.235 171.203 107.785 170.348C109.672 167.896 111.567 165.591 113.468 163.433Z" fill="white" stroke="#04ADF3" stroke-width="2"/>
<path d="M281.066 -58.6631C281.486 -56.2997 281.969 -53.8491 282.508 -51.5625L290.517 -8.25V-8.24902L290.554 -8.0459L290.585 -7.87402L290.672 -7.72363L290.773 -7.54785C291.192 -6.75325 295.97 2.44664 295.745 12.1025V12.3662L295.751 12.4209C295.82 13.038 302.896 71.0309 304.316 92.3037C304.501 95.0778 305.83 97.6945 307.96 99.4766V99.4775C309.735 100.96 312.585 103.492 315.274 106.516C317.416 108.924 319.41 111.595 320.698 114.258C309.113 110.057 283.943 105.385 258.503 129.387C256.44 127.049 252.462 123.389 247.063 122.56H247.062C244.388 122.152 241.738 122.489 239.14 123.538C240.42 120.228 242.326 116.14 244.999 112.301V112.3C246.533 110.094 247.291 107.536 247.2 104.898L247.199 104.894C247.098 102.307 247.145 98.8785 247.762 96.6924L247.763 96.6934C248.134 95.3885 248.313 94.1055 248.291 92.8545L248.27 92.3203L242.941 8.91406L242.939 8.88281L242.936 8.85156L240.166 -12.9033H240.165C240.047 -13.8653 239.694 -14.7806 239.149 -15.5703L238.904 -15.9014C238.768 -16.0782 238.672 -16.2733 238.618 -16.4785L238.579 -16.6885L237.237 -28.5127L246.076 -31.583L246.08 -31.584C246.784 -31.8319 247.54 -31.9619 248.315 -31.9619H248.32C259.662 -32.0186 264.333 -35.9506 266.17 -39.5938L266.171 -39.5947C266.869 -40.9832 267.756 -42.0887 268.797 -42.9102L268.808 -42.9062L269.22 -43.1943C275.25 -47.3992 278.906 -53.5176 281.066 -58.6631ZM285.389 73.2646L285.149 73.2822L267.581 74.9902L267.574 74.9912C266.334 75.12 265.218 75.7193 264.424 76.6768C263.622 77.6437 263.26 78.8695 263.377 80.1055V80.1094L263.765 84.0703C264 86.4918 266.044 88.2969 268.426 88.2969C268.59 88.2969 268.748 88.2842 268.862 88.2754L268.873 88.2744L268.883 88.2734L286.454 86.5654L286.461 86.5645C287.701 86.4357 288.817 85.8364 289.611 84.8789L290.97 83.2402H290.477C290.647 82.6659 290.707 82.0593 290.649 81.4502V81.4473L290.262 77.4854C290.022 74.995 287.856 73.1426 285.389 73.2646ZM293.768 55.0967C293.136 53.0014 291.087 51.5684 288.833 51.7959L260.471 54.5566C257.897 54.8045 256.02 57.0959 256.267 59.6641V59.665L257.024 67.4404V67.4463C257.153 68.6865 257.753 69.8026 258.711 70.5967L258.721 70.6045C259.566 71.2875 260.598 71.667 261.686 71.667C261.85 71.667 262.008 71.6543 262.122 71.6455H262.132L262.143 71.6445L290.506 68.8828L290.507 68.8838C293.082 68.6367 294.958 66.3441 294.712 63.7754V63.7744L293.955 56L293.867 55.0967H293.768ZM285.484 33.835C284.54 33.0577 283.336 32.6943 282.116 32.8115H282.114L264.454 34.5332H264.443L264.395 34.5381C261.871 34.7857 260.008 37.0364 260.256 39.5732L260.653 43.6816C260.771 44.9055 261.362 46.0186 262.318 46.7979C263.151 47.4775 264.177 47.8447 265.24 47.8447C265.405 47.8447 265.563 47.832 265.677 47.8232L265.688 47.8223L265.697 47.8213L283.407 46.0947H283.408C285.853 45.8548 287.677 43.7347 287.563 41.2959L287.547 41.0596L287.149 36.9512C287.039 35.8036 286.513 34.7533 285.659 33.9844L285.484 33.835ZM288.227 10.8984C287.282 10.1213 286.078 9.75775 284.858 9.875H284.857L256.344 12.6543H256.343C253.82 12.902 251.956 15.1526 252.204 17.6895L252.971 25.6016V25.6045C253.207 27.9853 255.21 29.7655 257.558 29.7656C257.714 29.7656 257.874 29.7527 257.985 29.7441L257.995 29.7432L258.006 29.7422L286.52 26.9629C288.964 26.723 290.79 24.6028 290.676 22.1641L290.658 21.9277L289.893 14.0156C289.782 12.8678 289.255 11.8179 288.401 11.0488L288.227 10.8984Z" fill="white" stroke="#04ADF3" stroke-width="2"/>
</g>
<defs>
<clipPath id="clip0_89_4">
<rect width="450" height="450" rx="30" fill="white"/>
</clipPath>
</defs>
</svg>
